<svg version="1.1" id="Layer_1" xmlns="http://www.w3.org/2000/svg" xmlns:xlink="http://www.w3.org/1999/xlink" x="0px" y="0px"
	 width="100%" viewBox="0 0 1024 192" enable-background="new 0 0 1024 192" xml:space="preserve">
<path fill="#000000" opacity="1.000000" stroke="none" 
	d="
M173.229492,119.039795 
	C173.232620,127.865616 173.129898,136.199356 173.267151,144.529144 
	C173.417450,153.650589 166.754242,155.126144 159.986053,154.111206 
	C157.779434,153.780319 157.723572,151.936310 157.721619,150.248917 
	C157.701340,132.751831 157.755951,115.254463 157.669785,97.757759 
	C157.647842,93.302986 160.631851,93.720825 163.476242,93.719124 
	C185.306091,93.706039 207.136002,93.725060 228.965729,93.671013 
	C231.445786,93.664871 233.983566,93.534836 236.393784,93.004341 
	C244.704605,91.175117 250.238327,84.204391 249.618484,76.642250 
	C248.963196,68.647667 242.438278,62.356400 233.785248,62.214352 
	C217.125687,61.940853 200.459351,62.107182 183.796539,61.989418 
	C177.809784,61.947109 171.794708,62.487659 165.839630,61.419945 
	C160.597610,60.480076 157.023224,55.337086 157.746414,50.048042 
	C158.230606,46.507030 160.944550,47.155907 163.103394,47.145245 
	C179.267105,47.065422 195.431702,47.025597 211.595306,47.108540 
	C219.586426,47.149536 227.594208,46.605793 235.568695,47.513302 
	C253.621033,49.567696 265.106750,62.657322 264.309174,80.226097 
	C263.613373,95.553024 249.808258,107.926727 232.608978,108.163704 
	C215.448273,108.400146 198.281845,108.220322 181.117920,108.222038 
	C173.216385,108.222824 173.216293,108.221779 173.224030,116.046806 
	C173.224854,116.879868 173.227585,117.712921 173.229492,119.039795 
z"/>
<path fill="#000000" opacity="1.000000" stroke="none" 
	d="
M541.220947,128.778351 
	C535.110107,123.131958 529.247070,117.737747 522.798218,111.804626 
	C521.890869,111.963860 520.810730,113.795441 519.464111,115.185165 
	C509.498535,125.469917 499.607574,135.826935 489.648346,146.117920 
	C480.997040,155.057434 477.484558,156.098785 464.653198,153.750900 
	C463.821869,151.666000 465.595581,150.765686 466.659210,149.653809 
	C497.624054,117.284851 528.687134,85.009415 559.543213,52.537266 
	C566.264648,45.463810 574.134399,47.269707 581.945496,47.386616 
	C582.219666,47.857445 582.493835,48.328278 582.768005,48.799107 
	C566.340149,66.039650 549.912292,83.280190 533.137817,100.884537 
	C549.866211,118.390778 566.259827,135.546631 582.797180,152.852905 
	C575.682800,156.140488 566.064819,154.599792 561.176575,149.587372 
	C554.549255,142.791687 548.032776,135.887939 541.220947,128.778351 
z"/>
<path fill="#000000" opacity="1.000000" stroke="none" 
	d="
M763.212158,122.611961 
	C759.877380,115.162956 758.513733,107.741913 758.591064,99.941353 
	C758.741394,84.780647 758.551392,69.616524 758.709412,54.455978 
	C758.737732,51.741463 756.843933,47.704262 762.129639,47.177216 
	C768.135864,46.578312 772.477478,48.918293 773.450317,53.701668 
	C773.877441,55.801434 773.937439,58.001499 773.945007,60.156792 
	C773.990540,73.152802 774.312317,86.159752 773.903198,99.142914 
	C773.114868,124.158730 794.039734,140.417877 814.527832,139.781982 
	C821.352539,139.570175 828.189575,139.714233 835.020508,139.764465 
	C839.228210,139.795410 842.500000,141.398331 843.853455,145.690948 
	C845.831177,151.963654 844.129761,154.447433 837.658691,154.286224 
	C826.024719,153.996399 814.291321,155.525894 802.772522,153.133911 
	C784.871643,149.416565 771.659851,139.346527 763.212158,122.611961 
z"/>
<path fill="#000000" opacity="1.000000" stroke="none" 
	d="
M674.127075,139.753662 
	C681.103394,139.756927 687.596802,139.710892 694.089111,139.778259 
	C698.064026,139.819489 701.236084,141.293716 702.689514,145.314453 
	C704.955261,151.582474 703.077454,154.457428 696.520081,154.286423 
	C684.732178,153.979019 672.865906,155.448730 661.167236,153.049515 
	C635.029419,147.688995 617.537781,126.199875 617.379333,99.232246 
	C617.285461,83.258797 617.408203,67.284035 617.301697,51.310741 
	C617.281250,48.248634 618.551819,47.230854 621.421875,47.089394 
	C629.154358,46.708275 632.389465,49.692066 632.401245,57.536060 
	C632.421509,71.021484 632.388000,84.507050 632.435547,97.992355 
	C632.522644,122.685013 649.052124,139.414841 674.127075,139.753662 
z"/>
<path fill="#000000" opacity="1.000000" stroke="none" 
	d="
M69.551346,157.703766 
	C66.405487,156.510651 65.360840,154.129868 64.391991,151.561218 
	C51.058304,116.210411 37.656704,80.885178 24.375927,45.514557 
	C23.523190,43.243469 20.772572,40.464127 25.137709,38.410961 
	C30.093670,36.079899 33.913139,36.429253 36.298050,39.951283 
	C37.033424,41.037285 37.524578,42.312603 37.992668,43.552170 
	C51.455837,79.204651 64.910637,114.860306 78.340744,150.525253 
	C80.277390,155.668182 78.180992,157.455307 69.551346,157.703766 
z"/>
<path fill="#000000" opacity="1.000000" stroke="none" 
	d="
M379.000000,61.988762 
	C359.507935,61.983829 340.515869,61.996590 321.523834,61.964870 
	C313.735443,61.951862 310.227325,56.690811 312.966400,49.360306 
	C313.733459,47.307415 315.375031,47.324596 317.042053,47.294678 
	C321.371521,47.216972 325.701752,47.137878 330.031708,47.134720 
	C356.853821,47.115147 383.676086,47.077950 410.497864,47.170269 
	C413.168457,47.179466 416.844116,45.926228 417.304169,50.760082 
	C417.832275,56.309212 416.107880,60.122272 411.910034,61.250687 
	C409.852600,61.803745 407.636047,61.935539 405.488892,61.954308 
	C396.826508,62.030025 388.163055,61.987438 379.000000,61.988762 
z"/>
<path fill="#000000" opacity="1.000000" stroke="none" 
	d="
M960.000000,47.106010 
	C970.158203,47.092411 979.818176,46.971146 989.473328,47.135586 
	C992.119385,47.180656 995.839417,45.824352 996.342224,50.637737 
	C996.973633,56.682941 995.277832,60.187653 990.704773,61.352070 
	C988.951233,61.798546 987.087585,61.993938 985.273865,61.995613 
	C956.965393,62.021797 928.656860,62.028629 900.348511,61.962955 
	C893.224915,61.946426 891.974182,60.635738 891.930115,53.998692 
	C891.887329,47.559101 891.887207,47.544643 898.567200,47.499367 
	C918.878052,47.361691 939.189087,47.236229 960.000000,47.106010 
z"/>
<path fill="#000000" opacity="1.000000" stroke="none" 
	d="
M366.000000,139.743393 
	C380.814575,139.741409 395.129700,139.666550 409.443512,139.770340 
	C416.164917,139.819077 419.199310,143.227051 419.130585,149.714417 
	C419.094788,153.095642 417.801056,154.455154 414.346100,154.377960 
	C406.693176,154.206970 399.033966,154.313049 391.377319,154.312271 
	C367.242218,154.309814 343.106995,154.272644 318.972137,154.348907 
	C315.254120,154.360641 312.550751,154.192627 312.680267,149.189911 
	C312.875214,141.659714 313.679413,139.818146 319.061066,139.780563 
	C334.540039,139.672440 350.020264,139.743240 366.000000,139.743393 
z"/>
<path fill="#000000" opacity="1.000000" stroke="none" 
	d="
M907.017944,139.728699 
	C934.322632,139.735458 961.130432,139.714233 987.938049,139.767776 
	C995.426941,139.782730 998.673035,143.402405 998.260437,150.560532 
	C998.099854,153.346237 996.936462,154.404037 994.253113,154.337814 
	C990.592163,154.247452 986.927368,154.314911 983.264221,154.315079 
	C954.957886,154.316360 926.651428,154.271988 898.345459,154.370773 
	C894.324524,154.384827 891.644958,153.982803 891.799622,148.855118 
	C892.021301,141.507492 892.894531,139.899765 898.528931,139.750610 
	C901.191284,139.680130 903.856873,139.732361 907.017944,139.728699 
z"/>
<path fill="#000000" opacity="1.000000" stroke="none" 
	d="
M935.000000,93.698875 
	C950.478271,93.699364 965.456970,93.647263 980.434509,93.754753 
	C982.820190,93.771873 986.270752,92.427170 986.866943,96.470238 
	C987.469666,100.557335 987.167908,104.582123 982.979248,106.946495 
	C980.903870,108.118004 978.560913,108.249001 976.195923,108.246567 
	C950.067139,108.219666 923.937988,108.162956 897.809814,108.286438 
	C893.684570,108.305939 891.701294,107.286606 891.821899,102.718163 
	C892.014038,95.438728 892.810974,93.780785 898.053101,93.739250 
	C910.201416,93.643005 922.350952,93.702637 935.000000,93.698875 
z"/>
<path fill="#000000" opacity="1.000000" stroke="none" 
	d="
M319.148865,108.218796 
	C313.522522,108.937096 312.522827,106.163300 312.712494,101.716049 
	C312.990509,95.196892 313.741852,93.761116 318.874908,93.748650 
	C346.820496,93.680740 374.766327,93.704216 402.712067,93.733994 
	C404.628235,93.736031 407.041809,93.355057 407.246063,96.304482 
	C407.521637,100.283669 408.084961,104.433121 403.745361,106.924873 
	C401.317047,108.319206 398.649597,108.241409 395.980103,108.239868 
	C370.529480,108.225204 345.078857,108.224144 319.148865,108.218796 
z"/>
<path fill="#000000" opacity="1.000000" stroke="none" 
	d="
M94.001434,83.090500 
	C96.078125,88.593346 98.115295,93.698196 99.894066,98.891556 
	C100.766869,101.439789 103.351891,104.379784 98.690964,106.302414 
	C93.690659,108.365028 89.302765,107.639412 87.417099,103.634117 
	C85.506981,99.576881 84.022545,95.314888 82.433365,91.111687 
	C76.251045,74.760231 70.048775,58.415836 63.996006,42.016376 
	C63.092430,39.568214 60.328197,36.598106 65.081581,34.610142 
	C70.413330,32.380291 74.249008,32.908077 76.342865,37.059483 
	C77.908661,40.163918 78.955605,43.532536 80.198715,46.796803 
	C84.758842,58.771187 89.304413,70.751114 94.001434,83.090500 
z"/>
<path fill="#000000" opacity="1.000000" stroke="none" 
	d="
M486.343384,71.637810 
	C479.177856,64.001259 472.245239,56.630520 465.338806,49.235355 
	C465.180969,49.066368 465.318970,48.621120 465.318970,48.052200 
	C474.219940,46.532623 482.372650,46.226013 488.914520,54.648190 
	C493.979279,61.168697 500.300323,66.713722 506.066467,72.688957 
	C508.418396,75.126205 511.033081,77.267059 507.096130,80.788704 
	C502.849854,84.587044 499.845490,85.277664 496.280640,81.920235 
	C492.900055,78.736320 489.801849,75.252563 486.343384,71.637810 
z"/>
</svg>